<?xml version="1.0" encoding="iso-8859-1"?>
<!-- Generator: Adobe Illustrator 19.0.0, SVG Export Plug-In . SVG Version: 6.00 Build 0)  -->
<svg version="1.1" id="Capa_1" xmlns="http://www.w3.org/2000/svg" xmlns:xlink="http://www.w3.org/1999/xlink" x="0px" y="0px"
	 viewBox="0 0 446.909 446.909" style="enable-background:new 0 0 446.909 446.909;" xml:space="preserve">
<g>
	<g>
		<path d="M239.453,141.561c-0.608-0.656-46.112-49.632-46.704-50.272c-10.528-11.376-18.064-5.024-25.136-19.712
			c-6.992-15.104-21.232-31.952-39.328-40.944c-4.944-2.352-10.32,2.064-9.136,7.984c3.232,15.008,12.272,24.048,0.208,34.592
			c-3.76,3.376-23.52,8.912-28.592,10.544l0.128,0.048c-31.888,9.712-45.968,28.368-60.112,44.096
			c-8.256,9.76-16.704,0.912-25.392,8.448c-9.36,8.224-5.472,21.584,3.6,27.168c15.344,9.456,19.504,23.856,28.944,36.336
			c13.856,18.4,32.8,34.864,54.048,29.152c27.776-7.712,81.456-23.776,106.72-31.152c17.04-4.976,27.856-20.016,40.656-33.776
			C245.165,157.817,245.261,147.801,239.453,141.561z M170.397,149.497c-10.288,9.456-49.824,28.736-88.464,35.168
			c-5.392,0.8-11.104-1.344-14.784-6.24c-7.488-9.92-2.688-24.88,8.88-27.728c24.688-7.344,48.576-19.008,70.72-35.28
			c8.416-6.256,20.048-4.576,26.576,4.176C180.205,128.713,178.909,142.105,170.397,149.497z"/>
	</g>
</g>
<g>
	<g>
		<path d="M262.845,164.633c-37.504,38.384-51.216,46.096-59.648,48.56c-7.696,2.256-25.232,7.44-46.64,13.776
			c-10.8,3.2-22.48,6.656-34.336,10.176l8.672,33.088v1.248l32.832-8.592l8.592,32.832l32.832-8.592l8.592,32.832l32.832-8.592
			l8.592,32.832l32.832-8.592l8.592,32.832l32.832-8.592l8.592,32.832l32.832-8.592l8.592,32.832l67.472-68.128L262.845,164.633z
			 M390.045,358.137c-5.632-5.68-5.552-14.896,0.128-20.544c5.76-5.632,14.896-5.584,20.544,0.144
			c5.68,5.712,5.6,14.896-0.128,20.496C404.877,363.849,395.709,363.769,390.045,358.137z"/>
	</g>
</g>
<g>
</g>
<g>
</g>
<g>
</g>
<g>
</g>
<g>
</g>
<g>
</g>
<g>
</g>
<g>
</g>
<g>
</g>
<g>
</g>
<g>
</g>
<g>
</g>
<g>
</g>
<g>
</g>
<g>
</g>
</svg>
