<svg height="512" viewBox="0 0 512 512" width="512" xmlns="http://www.w3.org/2000/svg"><g id="solid"><path d="m176 288h23.567l8-24h-63.567a8 8 0 0 1 0-16h68.9l13.333-40h-25.87a80.454 80.454 0 0 1 -80.363-80.363v-95.637h-88v320h165.188a40.622 40.622 0 0 1 -6.352-37.808l3.4-10.192h-18.236a8 8 0 0 1 0-16zm-72-24h-16a8 8 0 0 1 0-16h16a8 8 0 0 1 0 16zm32 40h-16a8 8 0 0 1 0-16h16a8 8 0 0 1 0 16z"/><path d="m200.363 192h35.182a30.153 30.153 0 0 1 41.067.144 87.982 87.982 0 0 1 80.062 63.856h19.326v-80h-218.036a64.076 64.076 0 0 0 42.399 16z"/><path d="m272.639 400h-33.278l-4.731 56.774a21.444 21.444 0 1 0 42.74 0z"/><path d="m136 32h240v32h-240z"/><path d="m248 160v-80h-112v47.637a63.951 63.951 0 0 0 8.763 32.363z"/><path d="m256 368h-8v16h16v-16z"/><path d="m392 176h88v80h-88z"/><path d="m264 80v80h216v-80h-96z"/><path d="m360 280a87.958 87.958 0 0 1 -37.462 72h157.462v-80h-120.37c.238 2.646.37 5.313.37 8z"/><path d="m269.47 209.709a14.2 14.2 0 0 0 -26.94 0l-36.514 109.543a24.88 24.88 0 0 0 23.604 32.748h42.38a71.668 71.668 0 0 0 24.236-4.208 25.257 25.257 0 0 0 3.738-3.08 24.744 24.744 0 0 0 6.01-25.461z"/><path d="m392 32h88v32h-88z"/><path d="m323.133 330.631a71.966 71.966 0 0 0 -36.892-121.207l34.923 104.767a41 41 0 0 1 1.969 16.44z"/></g></svg>